<?xml version="1.0" encoding="UTF-8" standalone="no"?>
<!-- Created with Inkscape (http://www.inkscape.org/) -->

<svg
   width="210mm"
   height="297mm"
   viewBox="0 0 210 297"
   version="1.1"
   id="svg1"
   xml:space="preserve"
   inkscape:version="1.3 (0e150ed6c4, 2023-07-21)"
   sodipodi:docname="book.svg"
   xmlns:inkscape="http://www.inkscape.org/namespaces/inkscape"
   xmlns:sodipodi="http://sodipodi.sourceforge.net/DTD/sodipodi-0.dtd"
   xmlns="http://www.w3.org/2000/svg"
   xmlns:svg="http://www.w3.org/2000/svg"><sodipodi:namedview
     id="namedview1"
     pagecolor="#ffffff"
     bordercolor="#000000"
     borderopacity="0.25"
     inkscape:showpageshadow="2"
     inkscape:pageopacity="0.0"
     inkscape:pagecheckerboard="0"
     inkscape:deskcolor="#d1d1d1"
     inkscape:document-units="mm"
     inkscape:zoom="0.73139029"
     inkscape:cx="525.71111"
     inkscape:cy="559.89258"
     inkscape:window-width="1920"
     inkscape:window-height="1017"
     inkscape:window-x="-8"
     inkscape:window-y="-8"
     inkscape:window-maximized="1"
     inkscape:current-layer="layer1" /><defs
     id="defs1" /><g
     inkscape:label="Layer 1"
     inkscape:groupmode="layer"
     id="layer1"><path
       style="fill:#000000;fill-opacity:1;stroke:none;stroke-opacity:1"
       d="m 103.159,178.05333 c -1.93459,-0.54661 -3.69496,-1.34976 -5.10598,-2.32956 l -1.24401,-0.86383 -27.00699,-0.13229 -27.00698,-0.13229 -0.93041,-0.6376 c -0.51173,-0.35068 -1.21734,-1.05632 -1.56802,-1.56808 l -0.6376,-0.93047 -0.0783,-43.94026 c -0.0535,-30.009729 0.009,-44.243445 0.19832,-44.896615 0.70961,-2.45318 2.07294,-3.23233 5.96541,-3.40926 l 2.91041,-0.13229 0.1323,-2.39508 c 0.14761,-2.6724 0.5331,-3.53743 1.88885,-4.23852 1.03715,-0.536331 1.83122,-0.439569 6.18094,0.75319 1.89177,0.51876 3.75868,1.01245 4.14868,1.09709 2.31931,0.50338 2.25803,3.60061 -0.0752,3.80324 -0.73268,0.0636 -3.98169,-0.66062 -7.57917,-1.6895 l -0.59531,-0.17026 V 119.002 161.76307 h 26.32604 26.32604 v -10.96101 -10.961 l 0.69714,-0.54837 c 0.87946,-0.69178 1.43043,-0.69178 2.30989,0 l 0.69714,0.54837 v 10.961 10.96101 h 26.32295 26.32295 l 0.0692,-32.56716 0.0692,-32.567149 0.62462,-0.50576 c 0.84934,-0.68772 1.78339,-0.63535 2.56241,0.14367 l 0.64943,0.64943 -9.9e-4,33.151089 c -9.8e-4,32.78392 -0.007,33.16078 -0.53496,34.0269 -1.03587,1.69903 -0.12534,1.63773 -24.32639,1.63773 h -21.96896 v 2.51354 2.51354 h 6.33755 c 4.14665,0 6.56434,0.10333 6.99357,0.2989 1.34244,0.61166 1.46173,2.71001 0.19269,3.38918 -0.33173,0.17753 -3.09444,0.28067 -7.51826,0.28067 h -6.99381 l -1.72357,1.15578 c -2.69138,1.80476 -4.50454,2.33289 -8.40067,2.4469 -2.31132,0.0676 -3.70568,-0.0158 -4.63021,-0.277 z m 9.55916,-4.78176 2.08251,-1.05746 0.0743,-3.24115 0.0743,-3.24114 h -7.68106 -7.68106 v 3.16384 3.16385 l 1.25332,0.73449 c 2.37508,1.39189 3.6304,1.68643 6.85063,1.60734 2.84691,-0.0699 3.01364,-0.10738 5.02708,-1.12977 z m -17.09978,-5.02621 v -2.51354 H 73.64947 c -23.92519,0 -23.24432,0.0418 -24.24644,-1.48758 -0.46156,-0.70439 -0.48963,-2.57184 -0.6159,-40.96637 l -0.13229,-40.228335 -1.87292,-0.0768 c -1.03011,-0.0423 -2.19097,0.0441 -2.57969,0.19188 l -0.70676,0.26872 v 43.345285 c 0,33.36023 0.0731,43.41844 0.3175,43.6628 0.24259,0.24259 6.39115,0.3175 26.06145,0.3175 h 25.74396 z m 43.70795,5.87587 c -0.81963,-0.87246 -0.76815,-2.11827 0.11627,-2.81396 0.68681,-0.54025 0.92121,-0.54837 15.82208,-0.54837 11.41107,0 15.2029,-0.078 15.44244,-0.3175 0.24436,-0.24436 0.3175,-10.30257 0.3175,-43.6628 V 83.433315 l -0.70676,-0.26872 c -0.38872,-0.14779 -1.54958,-0.23414 -2.57969,-0.19188 l -1.87292,0.0768 -0.13229,3.13317 c -0.12214,2.89262 -0.18025,3.17194 -0.75692,3.63802 -0.79487,0.64245 -1.66047,0.64226 -2.45492,-5.4e-4 -0.62157,-0.50292 -0.62501,-0.53716 -0.70391,-7.01146 -0.0436,-3.57834 -0.12919,-6.50606 -0.19016,-6.50606 -0.061,0 -1.39452,0.3475 -2.96342,0.77222 -1.5689,0.42472 -3.17997,0.84371 -3.58015,0.93108 l -0.72761,0.15886 v 15.208496 c 0,14.855719 -0.0123,15.220769 -0.52916,15.737669 -0.90705,0.90704 -1.79634,0.64466 -6.27751,-1.85209 -2.35062,-1.30969 -4.39828,-2.38125 -4.55035,-2.38125 -0.15207,0 -2.1982,1.07156 -4.54696,2.38125 -4.53923,2.53111 -5.40206,2.77752 -6.31071,1.8022 -0.50088,-0.53764 -0.53947,-0.91488 -0.53947,-5.27387 v -4.694799 l -4.38958,-0.084 c -4.24556,-0.0812 -4.40615,-0.10445 -4.89479,-0.70858 -0.68717,-0.84959 -0.63461,-1.78357 0.14422,-2.5624 0.63555,-0.63555 0.74015,-0.64943 4.89479,-0.64943 h 4.24536 v -7.945796 c 0,-6.13008 -0.0756,-7.96731 -0.33073,-8.03989 -0.1819,-0.0517 -4.8551,-0.77516 -10.3849,-1.60757 -5.52979,-0.83241 -10.44111,-1.57582 -10.91406,-1.65202 l -0.85989,-0.13854 v 28.345025 c 0,27.99226 -0.007,28.35162 -0.52917,28.8742 -0.29398,0.29399 -0.88194,0.52917 -1.32292,0.52917 -0.44097,0 -1.02893,-0.23518 -1.32291,-0.52917 -0.52258,-0.52257 -0.52917,-0.88194 -0.52917,-28.83958 0,-15.570725 -0.0963,-28.310405 -0.21407,-28.310405 -0.11774,0 -4.79093,0.70486 -10.38489,1.56635 -13.38589,2.0615 -14.2115,2.14959 -20.1572,2.15073 -4.5572,8.8e-4 -5.15135,-0.0503 -5.75007,-0.49527 -1.01116,-0.7515 -1.05333,-2.18981 -0.0866,-2.95278 0.69217,-0.54627 0.91864,-0.57397 3.38759,-0.41435 4.20043,0.27158 9.17432,-0.22982 22.55969,-2.27412 l 12.50552,-1.909931 8.26427,1.269401 c 4.54535,0.69817 10.02658,1.53644 12.18051,1.86283 l 3.91625,0.59342 0.51308,-1.00573 c 0.2822,-0.55315 0.95117,-1.34005 1.4866,-1.74866 l 0.97352,-0.742933 7.82632,-0.08275 c 5.09429,-0.05386 8.16727,0.0175 8.80301,0.204414 0.58857,0.173049 1.34354,0.715739 1.89987,1.365689 l 0.92319,1.07854 3.52408,-0.99058 c 4.40853,-1.239185 5.21741,-1.342543 6.26544,-0.80058 1.35575,0.70108 1.74125,1.56612 1.88886,4.23852 l 0.13229,2.39508 2.91042,0.13229 c 3.89246,0.17693 5.25579,0.95608 5.9654,3.40926 0.18893,0.65317 0.25181,14.886886 0.19832,44.896615 l -0.0783,43.94026 -0.6376,0.93047 c -0.35068,0.51176 -1.05624,1.2174 -1.56792,1.56808 l -0.93032,0.6376 -15.90902,0.0721 -15.90901,0.0721 z m 1.05279,-72.46077 c 1.12234,-0.6458 2.08664,-1.01044 2.64583,-1.00049 0.57933,0.0103 1.96443,0.6306 4.05488,1.8159 l 3.175,1.80026 0.0688,-14.052885 c 0.0378,-7.72908 0.0111,-14.20362 -0.0595,-14.38787 -0.10006,-0.26136 -1.71449,-0.31952 -7.34481,-0.26458 l -7.21656,0.0704 -0.0684,14.37437 -0.0684,14.374365 1.52364,-0.85667 c 0.83801,-0.47116 2.31833,-1.31393 3.2896,-1.87281 z M 64.0623,147.27713 c -0.78476,-0.87081 -0.82082,-1.77509 -0.10401,-2.6086 l 0.65775,-0.76484 13.84752,-0.0756 c 7.61614,-0.0416 14.11845,-0.009 14.44957,0.0729 0.85507,0.21089 1.64692,1.08554 1.64692,1.81913 0,0.34418 -0.24677,0.93949 -0.54837,1.32292 l -0.54837,0.69714 H 78.97144 c -13.46644,0 -14.5214,-0.0328 -14.90914,-0.46302 z m 52.47736,-0.23412 c -0.3016,-0.38343 -0.54837,-0.97874 -0.54837,-1.32292 0,-0.73389 0.79229,-1.60867 1.64692,-1.81837 0.33112,-0.0812 8.61934,-0.11405 18.41827,-0.0729 l 17.81622,0.0748 0.6578,0.76484 c 0.71686,0.83351 0.68082,1.73777 -0.10396,2.6086 -0.38981,0.43256 -1.63169,0.46302 -18.87789,0.46302 h -18.46062 z m -55.76471,-9.09498 c -1.35811,-0.54705 -1.67798,-2.09155 -0.67072,-3.23861 0.37993,-0.43266 1.61694,-0.46302 18.86721,-0.46302 h 18.46062 l 0.54837,0.69714 c 0.95225,1.21059 0.60613,2.48608 -0.80845,2.9792 -1.02806,0.35838 -35.5106,0.38234 -36.39703,0.0253 z m 60.34917,-0.10708 c -1.28689,-0.56588 -1.53421,-1.72973 -0.61571,-2.89741 l 0.54837,-0.69714 h 14.49187 c 14.18683,0 14.50202,0.0112 14.97386,0.53258 0.6606,0.72996 0.6143,2.01029 -0.0985,2.72327 l -0.58046,0.58061 -13.94958,0.0594 c -11.30015,0.0481 -14.10537,-0.009 -14.76987,-0.30131 z m -56.64159,-9.7299 c -1.27231,-0.61511 -1.34395,-2.71587 -0.11504,-3.37356 0.35096,-0.18783 5.21661,-0.28067 14.70907,-0.28067 h 14.18462 l 0.64944,0.64943 c 0.35718,0.35719 0.64943,0.95791 0.64943,1.33494 0,0.37703 -0.29225,0.97776 -0.64943,1.33495 l -0.64944,0.64943 -14.10108,-0.0179 c -9.29953,-0.0118 -14.29739,-0.11281 -14.67757,-0.29661 z m 52.15819,-0.33491 c -0.35718,-0.35719 -0.64943,-0.95792 -0.64943,-1.33495 0,-0.37703 0.29225,-0.97775 0.64943,-1.33494 l 0.64944,-0.64943 h 18.15337 c 12.28994,0 18.32277,0.0906 18.67782,0.28067 1.26905,0.67917 1.14975,2.77752 -0.19268,3.38917 -0.46702,0.21279 -5.83941,0.29891 -18.64727,0.29891 H 117.29016 Z M 60.34799,118.342 c -1.22132,-0.71049 -1.07234,-2.77635 0.24343,-3.37586 0.46702,-0.21279 5.83941,-0.2989 18.64727,-0.2989 h 17.99124 l 0.64944,0.64943 c 0.82769,0.82769 0.82769,1.84219 0,2.66988 l -0.64944,0.64943 -18.20213,-0.008 c -12.22211,-0.005 -18.35906,-0.0993 -18.67981,-0.28594 z m 60.26148,-0.35545 c -0.35718,-0.35718 -0.64943,-0.95791 -0.64943,-1.33494 0,-0.37703 0.29225,-0.97776 0.64943,-1.33494 l 0.64944,-0.64943 h 14.02249 c 9.85823,0 14.21731,0.0888 14.67852,0.2989 1.34243,0.61165 1.46173,2.71 0.19268,3.38917 -0.35096,0.18783 -5.21661,0.28067 -14.70907,0.28067 H 121.25891 Z M 66.09672,98.444741 c -0.94292,-0.81107 -1.00236,-2.15947 -0.12646,-2.86873 0.56648,-0.45871 1.34658,-0.48794 13.02071,-0.48794 H 91.4091 l 0.64943,0.64943 c 0.77897,0.77897 0.83139,1.71301 0.1438,2.5624 l -0.50563,0.62463 -12.43548,0.0737 -12.43547,0.0736 z"
       id="path1" /></g></svg>
