<svg width="210mm" height="297mm" viewBox="0 0 210 297" xmlns="http://www.w3.org/2000/svg"><path d="M71.827 205.236c-.824-.264-1.911-.735-2.415-1.047-1.39-.859-3.063-2.81-3.85-4.486l-.703-1.501-.076-9.327-.076-9.326-1.511-.006c-2.628-.01-4.956-1.482-6.045-3.82l-.621-1.334V109.566l.622-1.337c.807-1.732 2.427-3.105 4.342-3.68.832-.25 1.896-.57 2.365-.713l.853-.26.073-12.885.074-12.887.866-1.759c1.073-2.18 3.164-4.166 5.286-5.023l1.52-.614h81.757l1.52.614c2.123.857 4.214 2.844 5.287 5.023l.866 1.76.073 12.888c.068 11.935.107 12.898.53 13.016 4.544 1.261 6.025 2.203 7.103 4.52l.623 1.337-.003 32.412c-.003 30.798-.027 32.464-.486 33.47-1.165 2.555-3.487 4.1-6.162 4.1h-1.526l-.076 9.333-.076 9.333-.866 1.76c-1.073 2.178-3.164 4.165-5.286 5.022l-1.52.614-40.482.054c-38.486.05-40.555.03-41.98-.428zm82.102-3.77c1.369-.41 3.096-1.928 3.696-3.25.444-.977.488-1.914.494-10.495l.006-9.422-2.656-.566c-1.461-.311-3.009-.566-3.44-.566h-.784l-.006 2.183c-.007 2.604-.522 3.956-1.959 5.141-.536.442-1.429.94-1.983 1.106-1.436.43-66.338.43-67.774 0-.555-.166-1.447-.664-1.983-1.106-1.438-1.185-1.953-2.537-1.96-5.14l-.006-2.184h-.783c-.431 0-1.98.255-3.44.566l-2.656.566.006 9.422c.005 8.612.048 9.516.498 10.506.558 1.23 2.183 2.707 3.501 3.184 1.257.455 79.716.509 81.229.056zm-46.188-6.722c-.848-.848-.735-2.45.218-3.087.16-.106 2.634-.196 5.498-.198l5.206-.004.548.697c.302.384.549.903.549 1.155s-.247.772-.549 1.155l-.548.697h-5.253c-4.421 0-5.32-.066-5.67-.415zm-5.444-13.382c-5.635-2.512-15.752-4.724-21.61-4.724h-1.144v2.234c0 2.009.06 2.276.588 2.646.511.358 2.077.41 11.973.393l11.384-.018zm15.582-1.288c14.81-7.412 29.525-9.2 42.494-5.161 2.921.91 4.19.883 5.18-.106l.774-.774v-32c0-31.588-.007-32.007-.53-32.67-.479-.61-2.485-1.516-3.354-1.516-.287 0-.35 3.79-.35 21.13 0 20.978-.004 21.137-.548 21.829-.687.873-2.104.956-2.891.168-.522-.522-.53-.885-.534-25.466-.002-13.716-.091-25.068-.198-25.229-.682-1.02-5.449-1.734-11.572-1.732-8.86.003-18.052 2.042-27.32 6.063-1.348.584-2.747 1.257-3.109 1.494l-.659.432v32.67c0 21.801.089 32.67.267 32.67.147 0 1.486-.52 2.977-1.156 5.383-2.298 12.822-4.414 18.716-5.326 4.552-.703 11.432-.817 15.977-.264 5.106.621 4.925.758 4.925-3.746 0-2.914.058-3.324.53-3.796.86-.86 1.984-.796 2.844.16.546.608.595.922.595 3.76 0 1.702-.116 3.5-.257 3.993-.358 1.248-1.248 2.472-2.345 3.224-1.12.768-3.124.841-7.452.27-3.772-.497-11.215-.265-15.478.482-6.184 1.084-12.744 3.134-18.52 5.789-2.628 1.207-3.427 1.458-4.631 1.458-1.204 0-2.003-.251-4.63-1.458-5.79-2.66-12.357-4.711-18.521-5.783-4.286-.746-11.737-.98-15.478-.487-4.355.574-6.33.498-7.472-.284-1.226-.842-2.256-2.444-2.452-3.818-.085-.598-.12-10.415-.077-21.815l.079-20.727.624-.506c.81-.655 1.646-.64 2.515.043l.697.548v21.107c0 20.72.01 21.115.526 21.582.505.457.674.457 4.4.004 4.53-.552 11.395-.44 15.976.258 5.77.88 13.338 3.036 18.717 5.332 1.49.635 2.83 1.156 2.978 1.156.18 0 .246-10.764.2-32.742l-.067-32.743-1.984-.99c-5.907-2.949-14.002-5.356-21.658-6.44-3.805-.54-11.011-.528-14.708.024-2.848.425-3.792.717-4.177 1.294-.107.16-.196 3.482-.199 7.381l-.004 7.09-.65.65c-.72.72-1.132.79-2.086.355-1.005-.458-1.232-1.333-1.232-4.746 0-2.445-.08-3.162-.35-3.162-.87 0-2.876.906-3.355 1.515-.522.664-.529 1.083-.529 32.672v32l.774.772c.986.987 2.183 1.016 5.141.124 13.396-4.04 28.214-2.217 42.769 5.264 1.917.985 3.661 1.707 4.15 1.718.542.011 2.168-.645 4.552-1.838zm28.81 1.444c.53-.371.588-.636.588-2.677v-2.266l-2.845.181c-4.177.266-7.685.829-11.622 1.865-3.048.801-8.942 2.817-9.307 3.182-.07.07 4.986.127 11.235.127 9.856 0 11.44-.055 11.95-.412zm-30.958-79.716c1.124-.56 3.235-1.475 4.69-2.034 1.456-.56 2.76-1.113 2.898-1.232.138-.118-4.321-.214-9.91-.214-5.587 0-10.046.096-9.908.213.138.118 1.68.78 3.427 1.473 1.746.692 3.83 1.596 4.63 2.008.8.412 1.606.762 1.792.776.185.015 1.256-.43 2.38-.99zm-42.67-6.766l2.381-.304.132-4.886c.123-4.542.176-4.956.753-5.884.722-1.16 1.916-2.11 3.19-2.537 1.283-.43 66.346-.43 67.78 0 1.383.415 2.734 1.592 3.395 2.957.495 1.022.553 1.618.553 5.684 0 5.211-.404 4.567 3.175 5.056 1.092.15 2.372.35 2.845.446l.86.174-.007-8.434c-.005-7.62-.052-8.537-.493-9.506-.6-1.322-2.327-2.84-3.697-3.25-1.47-.44-79.567-.44-81.037 0-1.37.41-3.097 1.928-3.697 3.25-.44.97-.488 1.886-.493 9.503l-.006 8.43.992-.197c.546-.109 2.064-.334 3.374-.502zm74.216-4.77c0-4.195-.021-4.364-.589-4.762-.524-.367-4.119-.412-33.278-.412-29.16 0-32.754.045-33.279.412-.567.398-.588.567-.588 4.763v4.35h67.734zM87.4 91.414c-1.257-.73-1.06-2.828.32-3.4 1.96-.811 3.599 1.672 2.059 3.119a1.985 1.985 0 01-2.38.281zm8.812-.235c-.788-.788-.706-2.204.168-2.891.383-.302.903-.549 1.155-.549s.771.247 1.155.549c1.398 1.1.614 3.42-1.155 3.42-.441 0-1.03-.235-1.323-.53zm9.042-.083c-.975-1.038-.63-2.619.68-3.117 1.515-.576 3.05.958 2.473 2.474-.505 1.33-2.186 1.672-3.153.643z"/></svg>