<?xml version="1.0" encoding="UTF-8"?>
<svg width="600" height="600" version="1.1" xmlns="http://www.w3.org/2000/svg">
	<marker id="d" overflow="visible" orient="auto">
		<path transform="scale(1.1) rotate(180) translate(1)" d="m8.7186 4.0337-10.926-4.0177 10.926-4.0177c-1.7455 2.3721-1.7354 5.6175-6e-7 8.0354z" fill="#808080" stroke="#808080" stroke-linejoin="round" stroke-width=".625"/>
	</marker>
	<marker id="h" overflow="visible" orient="auto">
		<path transform="scale(1.1) translate(1)" d="m8.7186 4.0337-10.926-4.0177 10.926-4.0177c-1.7455 2.3721-1.7354 5.6175-6e-7 8.0354z" fill="#808080" stroke="#808080" stroke-linejoin="round" stroke-width=".625"/>
	</marker>
	<g fill="none" stroke-linecap="round">
		<path d="m91.429 583.87v-546.49" stroke="#000" stroke-width="2.5"/>
		<path d="m81.075 337.86h497.5" stroke="#000" stroke-width="2.5"/>
		<g stroke="#808080" stroke-width="2">
			<path d="m511.57 337.86v243.99"/>
			<path d="m325.27 141.44v194.03" marker-end="url(#d)" marker-start="url(#h)"/>
			<path d="m406.53 532.13v-390.69" marker-end="url(#d)" marker-start="url(#h)"/>
			<path d="m173.75 335.47v-134.64" marker-end="url(#d)" marker-start="url(#h)"/>
			<path d="m93.466 557.6h416.06" marker-end="url(#d)" marker-start="url(#h)"/>
			<path d="m80.88 198.48h185.92"/>
		</g>
		<g>
			<path d="m91.413 337.86c33.461-98.552 66.922-197.1 105.04-197.1 38.116 2e-3 71.577 98.552 105.04 197.1 33.461 98.552 66.922 197.1 105.04 197.1 38.116-2e-3 71.578-98.552 105.04-197.1" stroke="#f00" stroke-width="3"/>
			<path d="m80.917 139.32h341.38" stroke="#808080" stroke-width="2"/>
			<path d="m80.441 536.34h10.988" stroke="#808080" stroke-width="2"/>
			<g stroke-linejoin="round">
				<circle cx="302.55" cy="536.38" r="19" stroke="#000080"/>
				<circle cx="195.95" cy="271.85" r="19" stroke="#000080"/>
				<circle cx="347.32" cy="238.46" r="19" stroke="#000"/>
				<circle cx="430.21" cy="269.27" r="19" stroke="#000"/>
			</g>
		</g>
	</g>
	<path d="m80.38 63.007 11.049-30.046 11.049 30.046c-6.5233-4.8001-15.448-4.7724-22.097 0z" stroke="#000" stroke-linejoin="round"/>
	<path d="m551.69 326.81 30.046 11.049-30.046 11.049c4.8001-6.5233 4.7724-15.448 0-22.097z" stroke="#000" stroke-linejoin="round"/>
	<g font-family="DejaVu Sans" font-size="40">
		<g fill="#000080">
			<text x="334.14285" y="253.13094">1</text>
			<text x="417.89182" y="283.26733">2</text>
			<text x="184.35715" y="286.44644">3</text>
			<text x="288.31567" y="551.36865">4</text>
		</g>
		<g font-style="oblique">
			<text x="52" y="55">u</text>
			<text x="52" y="150">รป</text>
			<text x="52" y="351">0</text>
			<text x="555" y="378">t</text>
			<text x="37" y="547">-รป</text>
		</g>
	</g>
</svg>
